<svg width="500" height="500" viewBox="0 0 500 500" fill="none" xmlns="http://www.w3.org/2000/svg">
<rect x="0.375" y="0.375" width="499.25" height="499.25" rx="7.625" stroke="#D8E3EE" stroke-width="0.75"/>
<path d="M186.867 233.198C184.606 233.166 182.372 233.699 180.371 234.747C178.371 235.796 176.668 237.326 175.418 239.199V234.304H167.059V282.39H175.629V265.06C177.245 267.78 180.896 270.107 186.867 270.107C195.789 270.107 201.76 262.797 201.76 251.689C201.76 240.524 195.789 233.198 186.867 233.198ZM184.058 262.685C178.861 262.685 175.206 259.018 175.206 251.619C175.206 244.287 178.861 240.622 184.058 240.622C189.046 240.622 192.838 243.502 192.838 251.619C192.838 259.803 189.046 262.685 184.058 262.685ZM323.507 233.198C321.246 233.166 319.012 233.699 317.011 234.747C315.011 235.796 313.308 237.326 312.058 239.199V234.304H303.699V282.39H312.269V265.06C313.869 267.78 317.536 270.107 323.507 270.107C332.429 270.107 338.4 262.797 338.4 251.689C338.4 240.524 332.429 233.198 323.507 233.198ZM320.698 262.685C315.501 262.685 311.846 259.018 311.846 251.619C311.846 244.287 315.501 240.622 320.698 240.622C325.686 240.622 329.478 243.502 329.478 251.619C329.478 259.803 325.686 262.685 320.698 262.685V262.685ZM266.102 251.199L279.309 269.061H268.912L265.392 263.976C263.494 261.115 262.09 259.094 260.755 257.209C259.28 259.304 257.946 261.185 256.118 263.906L252.598 269.07H243.318L256.243 251.069L243.974 234.304H254.23L257.251 238.839C259.149 241.63 260.272 243.289 261.536 245.116C262.87 243.302 263.926 241.7 265.891 238.839L269.053 234.304H278.48L266.102 251.199ZM285.421 234.304H293.92V269.061H285.421V234.304ZM294.998 223.282C295 224.33 294.689 225.354 294.104 226.226C293.52 227.097 292.688 227.777 291.714 228.179C290.74 228.58 289.668 228.686 288.633 228.482C287.599 228.278 286.649 227.774 285.903 227.033C285.157 226.293 284.65 225.349 284.444 224.322C284.239 223.294 284.345 222.23 284.75 221.262C285.154 220.295 285.839 219.469 286.716 218.888C287.594 218.307 288.625 217.998 289.68 218C291.091 218.004 292.444 218.564 293.441 219.556C294.437 220.549 294.998 221.893 294.998 223.295V223.282ZM370 221.369V228.997H361.36V274.763H370V282.39H353.68V221.369H370ZM224.518 263.41C220.022 263.41 216.23 260.826 215.878 253.78H240.605C241.728 242.269 235.485 233.268 224.307 233.268C214.614 233.268 207.379 240.594 207.379 251.702C207.379 263.283 214.122 270.119 224.448 270.119C233.651 270.119 238.57 265.374 240.816 260.003L233.088 257.143C231.824 260.048 229.52 263.41 224.518 263.41ZM224.307 239.618C228.733 239.618 231.824 242.409 232.106 247.503H216.16C216.79 242.478 220.093 239.618 224.307 239.618ZM130 282.39V274.763H138.64V228.997H130V221.369H146.32V282.39H130Z" fill="#0A2136"/>
</svg>
